<svg width="24" height="24" viewBox="0 0 24 24" fill="none" xmlns="http://www.w3.org/2000/svg">
<rect x="24" y="24" width="24" height="24" rx="12" transform="rotate(-180 24 24)" fill="#FFF9ED"/>
<path d="M13.5 6.99995C13.6316 6.99919 13.7621 7.02441 13.8839 7.07418C14.0057 7.12394 14.1166 7.19727 14.21 7.28995C14.3037 7.38291 14.3781 7.49351 14.4289 7.61537C14.4797 7.73723 14.5058 7.86794 14.5058 7.99995C14.5058 8.13196 14.4797 8.26267 14.4289 8.38453C14.3781 8.50638 14.3037 8.61699 14.21 8.70995L10.9 11.9999L14.08 15.3099C14.2663 15.4973 14.3708 15.7508 14.3708 16.0149C14.3708 16.2791 14.2663 16.5326 14.08 16.7199C13.987 16.8137 13.8764 16.8881 13.7546 16.9388C13.6327 16.9896 13.502 17.0157 13.37 17.0157C13.238 17.0157 13.1073 16.9896 12.9854 16.9388C12.8636 16.8881 12.753 16.8137 12.66 16.7199L8.8 12.7199C8.61677 12.533 8.51414 12.2817 8.51414 12.0199C8.51414 11.7582 8.61677 11.5069 8.8 11.3199L12.8 7.31995C12.8898 7.22302 12.9978 7.14483 13.118 7.0899C13.2381 7.03498 13.368 7.00441 13.5 6.99995Z" fill="#FFD480"/>
</svg>
